<svg xmlns="http://www.w3.org/2000/svg" xmlns:xlink="http://www.w3.org/1999/xlink" height="100" width="100" version="1.1"><path d="M790 1001q46 8 99 8q76 0 97 -15q8 -6 19 -25q22 -38 22 -78q0 -56 -87 -102q-144 -77 -244 -169q-80 -74 -105 -119l-78 -136q-16 -29 -37 -29t-21 30q0 59 67 158q82 122 188 201q116 86 150 102q58 27 76 43.5t18 41.5q0 36 -63 36q-35 0 -87 -15q4 -13 7 -19
q17 -46 17 -64q0 -31 -27 -31q-28 0 -43 32q-1 2 -23 60q-29 -10 -58 -23q37 -91 37 -117q0 -31 -27 -31q-28 0 -43 33q-1 1 -31 83q-6 -4 -10 -6q-77 -46 -100 -46q-37 0 -37 31q0 24 48 54q109 66 209 96l-1 27v9v35q-112 1 -145 25q-60 45 -60 194q0 36 29 36
q31 0 39 -77q9 -96 54 -111q13 -4 84 -5q0 14 1 43q0 5 -1 29v39q-72 8 -92 49q-19 37 -18 114q-72 -3 -97 -3q-38 0 -38 28q0 25 34 30q25 4 277 10q86 2 139 5q29 1 44 1q51 0 51 -28q0 -34 -78 -34q-16 -1 -59 -2q1 -27 1 -47q0 -72 -35 -98q-18 -13 -60 -22
q-1 -44 -1 -50v-30v-35q84 1 106 13q22 11 27 34q9 36 11 72q3 49 10 60q10 16 29 16q27 0 27 -57q0 -44 -14 -109q-13 -57 -48 -73q-23 -12 -97 -14l-51 -1l-1 -29v-28zM820 1397q-24 0 -145 -4v-16q0 -47 10 -65q15 -25 60 -25q50 0 66 22q10 13 10 46v14q-1 11 -1 28z
M1148 1537l90 6q167 7 179 7q61 0 61 -36q0 -31 -108 -33q-49 0 -153 -7q-21 -1 -66 -3q2 -21 7 -32q10 -20 53 -20q8 0 35 2q80 5 116 5q58 0 78 -21q29 -30 29 -95q0 -83 -59 -107q-22 -9 -97 -13q44 -17 129 -60q96 -47 96 -77q0 -21 -28 -21q-33 0 -162 69
q-29 16 -169 68q-29 -12 -35 -40q123 -43 249 -104q131 -63 131 -100q0 -21 -27 -21q-25 0 -68 20q-12 5 -170 88q-5 2 -57 23q-21 9 -64 27l-3 -63q83 -30 243 -100q183 -82 183 -124q0 -24 -33 -24q-29 0 -168 79q-43 24 -170 75q-38 15 -56 23q4 -39 15 -58
q15 -29 78 -58q124 -57 190 -107q98 -74 147 -123q34 -35 34 -75q0 -35 -24 -35q-21 0 -53 43q-36 50 -147 133q-57 42 -162 94q-104 53 -130 110q-14 31 -14 92q0 176 13 217q20 63 91 77q98 20 156 19q49 0 61 16q13 18 13 45q0 40 -67 40q-61 0 -153 -9q-21 -2 -33 -2
q-29 0 -43 19q-31 41 -31 174q0 76 39 76q33 0 34 -79zM1249 76q-127 -7 -243 -7q-165 0 -211 31q-67 44 -67 339q0 150 27 179q38 41 170 45q67 3 111 5q88 4 117 4h62q73 0 73 -34q0 -41 -96 -38q-116 4 -270 -5q-90 -5 -108 -25q-10 -12 -14 -73h75h33h107l117 2
q109 0 134 -47q13 -24 34 -255q27 -266 29 -279q10 -77 10 -105q0 -39 -28 -39q-19 0 -28 17q-10 21 -23 170q-5 51 -11 115zM1224 330q-6 69 -16 85q-12 18 -100 18q-15 0 -95 -2h-162h-24h-28v-40v-13v-48h44h32h156h156h13h24zM1231 263h-36h-16h-125h-252
q11 -79 42 -101q31 -21 141 -21q214 0 258 3zM623 1582h121q48 0 84 1h33q62 0 62 -29q0 -33 -74 -33h-50l-74 1q-9 0 -111 -3h-17q-58 0 -58 30q0 33 84 33z" style="" transform="scale(0.05 -0.05) translate(0 -1650)"/></svg>