<?xml version="1.0" encoding="UTF-8" standalone="no"?>
<!-- Created with Inkscape (http://www.inkscape.org/) -->

<svg
   width="44.56636mm"
   height="29.683645mm"
   viewBox="0 0 44.56636 29.683645"
   version="1.1"
   id="svg1"
   xml:space="preserve"
   xmlns:inkscape="http://www.inkscape.org/namespaces/inkscape"
   xmlns:sodipodi="http://sodipodi.sourceforge.net/DTD/sodipodi-0.dtd"
   xmlns="http://www.w3.org/2000/svg"
   xmlns:svg="http://www.w3.org/2000/svg"><sodipodi:namedview
     id="namedview1"
     pagecolor="#ffffff"
     bordercolor="#000000"
     borderopacity="0.25"
     inkscape:showpageshadow="2"
     inkscape:pageopacity="0.0"
     inkscape:pagecheckerboard="0"
     inkscape:deskcolor="#d1d1d1"
     inkscape:document-units="mm" /><defs
     id="defs1"><inkscape:path-effect
       effect="fillet_chamfer"
       id="path-effect1"
       is_visible="true"
       lpeversion="1"
       nodesatellites_param="F,0,0,1,0,0,0,1 @ F,0,0,1,0,0,0,1 @ F,0,0,1,0,0,0,1 @ F,0,0,1,0,0,0,1"
       radius="0"
       unit="px"
       method="auto"
       mode="F"
       chamfer_steps="1"
       flexible="false"
       use_knot_distance="true"
       apply_no_radius="true"
       apply_with_radius="true"
       only_selected="false"
       hide_knots="false" /></defs><g
     inkscape:label="图层 1"
     inkscape:groupmode="layer"
     id="layer1"
     transform="translate(-133.15236,-71.507154)"><path
       style="fill:#1a1a1a;stroke-width:0.881668;stroke-linecap:round;stroke-linejoin:round"
       id="rect1"
       width="45.302315"
       height="29.765417"
       x="133.15236"
       y="71.425385"
       inkscape:path-effect="#path-effect1"
       sodipodi:type="rect"
       d="m 133.15236,71.425385 h 45.30231 V 101.1908 h -45.30231 z"
       transform="matrix(0.98375451,0,0,0.99725275,2.1631249,0.27799669)"
       inkscape:export-filename="聋语_2.svg"
       inkscape:export-xdpi="96"
       inkscape:export-ydpi="96" /><path
       d="m 142.5179,82.955047 q 0.60854,-0.105833 1.30969,-0.105833 1.00541,0 1.28323,0.198437 0.10583,0.07937 0.25135,0.330729 0.29104,0.502709 0.29104,1.031875 0,0.740834 -1.15094,1.349375 -1.905,1.018646 -3.22791,2.23573 -1.05834,0.978958 -1.38906,1.57427 l -1.03188,1.799167 q -0.21167,0.383646 -0.48948,0.383646 -0.27781,0 -0.27781,-0.396875 0,-0.780521 0.88635,-2.090208 1.08479,-1.613959 2.48709,-2.659063 1.53458,-1.137708 1.98437,-1.349375 0.76729,-0.357187 1.00542,-0.575469 0.23812,-0.218281 0.23812,-0.54901 0,-0.47625 -0.83344,-0.47625 -0.46302,0 -1.15093,0.198437 0.0529,0.17198 0.0926,0.251355 0.22489,0.608541 0.22489,0.846666 0,0.410104 -0.35718,0.410104 -0.37042,0 -0.56886,-0.423333 -0.0132,-0.02646 -0.30427,-0.79375 -0.38364,0.132292 -0.76729,0.304271 0.48948,1.203854 0.48948,1.547812 0,0.410105 -0.35719,0.410105 -0.37042,0 -0.56885,-0.436563 -0.0132,-0.01323 -0.41011,-1.098021 -0.0794,0.05292 -0.13229,0.07937 -1.01864,0.608542 -1.32292,0.608542 -0.48947,0 -0.48947,-0.410104 0,-0.3175 0.635,-0.714375 1.44198,-0.87312 2.7649,-1.269995 l -0.0132,-0.357188 v -0.119062 -0.463021 q -1.48167,-0.01323 -1.91823,-0.330729 -0.79375,-0.595313 -0.79375,-2.566459 0,-0.47625 0.38364,-0.47625 0.41011,0 0.51594,1.018646 0.11906,1.27 0.71438,1.468438 0.17197,0.05292 1.11125,0.06615 0,-0.185209 0.0132,-0.568854 0,-0.06615 -0.0132,-0.383646 v -0.515938 q -0.9525,-0.105833 -1.21709,-0.648229 -0.25135,-0.489479 -0.23812,-1.508125 -0.9525,0.03969 -1.28323,0.03969 -0.50271,0 -0.50271,-0.370417 0,-0.330729 0.44979,-0.396875 0.33073,-0.05292 3.66448,-0.132291 1.13771,-0.02646 1.83885,-0.06615 0.38365,-0.01323 0.58209,-0.01323 0.67468,0 0.67468,0.370416 0,0.449792 -1.03187,0.449792 -0.21167,0.01323 -0.78052,0.02646 0.0132,0.357187 0.0132,0.621771 0,0.9525 -0.46302,1.296458 -0.23813,0.171979 -0.79375,0.291042 -0.0132,0.582083 -0.0132,0.661458 v 0.396875 0.463021 q 1.11125,-0.01323 1.40229,-0.171979 0.29104,-0.145521 0.35719,-0.449792 0.11906,-0.47625 0.14552,-0.9525 0.0397,-0.648229 0.13229,-0.79375 0.13229,-0.211667 0.38365,-0.211667 0.35718,0 0.35718,0.754063 0,0.582083 -0.18521,1.441979 -0.17197,0.754063 -0.635,0.965729 -0.30427,0.15875 -1.28322,0.185209 l -0.67469,0.01323 -0.0132,0.383645 z m 0.39687,-5.23875 q -0.3175,0 -1.91822,0.05292 v 0.211667 q 0,0.621771 0.13229,0.859896 0.19843,0.330729 0.79375,0.330729 0.66145,0 0.87312,-0.291042 0.13229,-0.171979 0.13229,-0.608541 v -0.185212 q -0.0132,-0.145521 -0.0132,-0.370417 z m 4.33917,-1.852083 1.19063,-0.07937 q 2.20927,-0.0926 2.36802,-0.0926 0.80698,0 0.80698,0.47625 0,0.410104 -1.42875,0.436562 -0.64823,0 -2.02407,0.0926 -0.27781,0.01323 -0.87312,0.03969 0.0265,0.277813 0.0926,0.423334 0.13229,0.264583 0.70114,0.264583 0.10584,0 0.46303,-0.02646 1.05833,-0.06615 1.53458,-0.06615 0.76729,0 1.03187,0.277812 0.38365,0.396875 0.38365,1.256771 0,1.098021 -0.78052,1.415521 -0.29104,0.119063 -1.28323,0.171979 0.58208,0.224896 1.70656,0.79375 1.27,0.621771 1.27,1.018646 0,0.277813 -0.37041,0.277813 -0.43657,0 -2.14313,-0.912813 -0.38365,-0.211667 -2.23573,-0.899583 -0.38364,0.15875 -0.46302,0.529166 1.62719,0.568855 3.29406,1.375834 1.73302,0.833437 1.73302,1.322916 0,0.277813 -0.35718,0.277813 -0.33073,0 -0.89959,-0.264583 -0.15874,-0.06615 -2.24895,-1.164167 -0.0662,-0.02646 -0.75406,-0.304271 -0.27782,-0.119062 -0.84667,-0.357187 l -0.0397,0.833437 q 1.09802,0.396875 3.21469,1.322917 2.42093,1.084792 2.42093,1.640417 0,0.3175 -0.43656,0.3175 -0.38364,0 -2.2225,-1.045104 -0.56885,-0.3175 -2.24896,-0.992188 -0.5027,-0.198437 -0.74083,-0.304271 0.0529,0.515938 0.19844,0.767292 0.19844,0.383646 1.03187,0.767292 1.64042,0.754062 2.51355,1.41552 1.29645,0.978959 1.94468,1.627188 0.4498,0.463021 0.4498,0.992187 0,0.463021 -0.3175,0.463021 -0.27782,0 -0.70115,-0.568854 -0.47625,-0.661458 -1.94469,-1.759479 -0.75406,-0.555625 -2.14312,-1.243542 -1.37584,-0.701146 -1.71979,-1.455208 -0.18521,-0.410104 -0.18521,-1.217083 0,-2.328334 0.17198,-2.87073 0.26458,-0.833437 1.20385,-1.018645 1.29646,-0.264584 2.06375,-0.251355 0.64823,0 0.80698,-0.211666 0.17198,-0.238125 0.17198,-0.595313 0,-0.529166 -0.88636,-0.529166 -0.80697,0 -2.02406,0.119062 -0.27781,0.02646 -0.43656,0.02646 -0.38365,0 -0.56885,-0.251354 -0.41011,-0.542396 -0.41011,-2.301875 0,-1.005417 0.51594,-1.005417 0.43656,0 0.44979,1.045105 z m 1.33615,19.327812 q -1.68011,0.0926 -3.21469,0.0926 -2.18281,0 -2.79136,-0.410104 -0.88635,-0.582083 -0.88635,-4.484687 0,-1.984375 0.35719,-2.368021 0.50271,-0.542396 2.24896,-0.595313 0.88635,-0.03969 1.46843,-0.06615 1.16417,-0.05292 1.54782,-0.05292 h 0.8202 q 0.96573,0 0.96573,0.449792 0,0.542395 -1.27,0.502708 -1.53458,-0.05292 -3.57187,0.06615 -1.19063,0.06615 -1.42875,0.330729 -0.13229,0.15875 -0.18521,0.965729 h 0.99219 0.43656 1.41552 l 1.54781,-0.02646 q 1.44198,0 1.77271,0.621771 0.17198,0.3175 0.44979,3.373437 0.35719,3.518958 0.38365,3.690936 0.13229,1.01865 0.13229,1.38906 0,0.51594 -0.37042,0.51594 -0.25135,0 -0.37041,-0.22489 -0.13229,-0.27782 -0.30427,-2.248963 -0.0661,-0.674687 -0.14552,-1.521354 z m -0.33073,-3.360208 q -0.0794,-0.912813 -0.21167,-1.124479 -0.15875,-0.238125 -1.32292,-0.238125 -0.19843,0 -1.25677,0.02646 h -2.14312 -0.3175 -0.37042 v 0.529167 0.171979 0.635 h 0.58208 0.42334 2.06375 2.06375 0.17198 z m 0.0926,0.886354 h -0.47625 -0.21167 -1.65364 -3.33375 q 0.14552,1.045104 0.55562,1.336146 0.4101,0.277812 1.86531,0.277812 2.83104,0 3.41313,-0.03969 z m -8.04333,-17.449271 h 1.60073 q 0.635,0 1.11125,-0.01323 h 0.43656 q 0.82021,0 0.82021,0.383646 0,0.436562 -0.97896,0.436562 h -0.66146 l -0.97896,-0.01323 q -0.11906,0 -1.46843,0.03969 h -0.2249 q -0.76729,0 -0.76729,-0.396875 0,-0.436562 1.11125,-0.436563 z"
       style="fill:#ffffff;stroke-width:0.0132292"
       id="path1"
       inkscape:export-filename="聋语_1.svg"
       inkscape:export-xdpi="96"
       inkscape:export-ydpi="96" /><path
       d="m 159.33663,76.882854 h 3.47927 q 0.80698,0 0.80698,0.436562 0,0.542396 -0.46302,0.542396 h -3.94229 q -0.42334,0 -0.42334,-0.370417 0,-0.185208 0.1323,-0.370416 0.17198,-0.238125 0.4101,-0.238125 z m 7.50094,14.618229 3.92906,-0.02646 q -0.0397,-0.410104 -0.0397,-0.621771 0,-0.965727 0.44979,-0.965727 0.21167,0 0.37042,0.185208 0.21167,0.224896 0.21167,0.62177 v 4.061353 q 0,0.833438 -0.50271,1.481667 -0.37042,0.463021 -1.46844,0.568854 -0.635,0.05292 -1.49489,0.05292 -2.43417,0 -2.43417,-2.050521 v -3.638022 q 0,-1.441979 0.5424,-1.441979 0.47625,0 0.47625,0.886354 0,0.185208 -0.0132,0.370417 -0.0265,0.47625 -0.0265,0.515937 z m -0.0265,1.11125 q 0,0.224896 0.0132,0.343958 v 0.291042 0.343958 q 0,1.283231 0.0529,1.574271 0.17198,0.780521 1.12448,0.780521 2.12989,0 2.50031,-0.357187 0.3175,-0.291042 0.3175,-1.217084 0,-0.211666 -0.0529,-1.177396 -0.0132,-0.15875 -0.0132,-0.291041 0,-0.145521 0.0132,-0.383646 z m -2.06375,-12.885209 q 0.11906,-0.224895 0.17198,-0.30427 0.13229,-0.17198 0.52917,-0.17198 h 6.58812 q 0.70115,0 0.82021,0.145521 0.11906,0.132292 0.11906,0.370417 0,0.330729 -0.21166,0.423333 -0.0397,0.01323 -0.11907,0.02646 -0.34395,0.06615 -0.43656,0.185209 l -2.91042,3.505729 2.75167,3.571875 q 0.76729,0.01323 0.76729,0.515939 0,0.476249 -0.635,0.476249 h -6.90562 q -0.70115,0 -0.70115,-0.330729 0,-0.383646 0.21167,-0.542396 0.0397,-0.02646 0.0926,-0.03969 0.26458,-0.0926 0.35719,-0.211667 l 2.77813,-3.479269 -2.75167,-3.624792 q -0.30427,-0.01323 -0.38365,-0.06615 -0.0661,-0.03969 -0.15875,-0.251354 -0.18521,0.304271 -0.64823,0.304271 -0.38364,0 -1.00541,0.03969 0.0397,1.217084 0.0397,1.375833 0,1.217084 -0.30427,1.613958 -0.3175,0.410103 -1.21709,0.502709 v 4.352395 h 0.13229 l 0.0661,0.01323 q 0.41011,0 0.67469,-0.158749 0.26458,-0.158749 0.42333,-1.336146 0.0794,-0.595312 0.0794,-1.230314 0,-1.296458 0.42334,-1.296458 0.56885,0 0.56885,0.833437 0,1.574271 -0.26458,2.791355 -0.25136,1.124479 -1.29646,1.336145 -0.25136,0.03969 -0.80698,0.07938 v 0.211667 0.171979 0.132292 q 0,0.224896 0.0265,1.27 -0.0265,0.410104 -0.0397,0.740833 0.44979,0.06615 0.62177,0.06615 h 0.15875 q 0.0529,0 0.47625,-0.03969 V 91.47463 91.302651 91.15713 q -0.0132,-0.185209 -0.0132,-0.436563 0,-0.621771 0.44979,-0.621771 0.55563,0 0.55563,1.44198 v 3.413125 q 0,2.169583 -2.77813,2.169583 -1.62719,0 -2.20927,-0.701146 -0.51595,-0.621776 -0.51595,-1.389068 v -3.690938 q 0,-1.058333 0.2249,-1.256771 0.15875,-0.13229 0.33073,-0.13229 0.50271,0 0.50271,0.912813 0,0.07938 -0.0529,0.820206 h 0.27781 0.21167 0.17198 q 0.0397,0 0.17198,0.01323 0.11906,0 0.50271,0.01323 v -0.291042 q -0.0132,-0.198437 -0.0132,-0.238125 v -0.07938 l 0.0265,-1.243542 V 89.741603 89.46379 89.119832 q -0.92605,-0.03969 -1.30969,-0.251354 -0.62178,-0.330729 -0.8599,-1.389063 -0.17198,-0.754062 -0.17198,-2.500312 0,-0.899583 0.52917,-0.899583 0.44979,0 0.44979,0.661458 0,0.15875 -0.0132,0.396875 v 0.264583 q 0,1.693334 0.3175,2.301875 0.23812,0.449792 0.83343,0.449792 0.2249,0 0.2249,-0.264583 v -4.153959 q -0.58208,-0.105833 -0.82021,-0.238125 -0.33073,-0.185208 -0.44979,-0.582083 -0.13229,-0.396875 -0.13229,-1.296459 0,-0.132291 0.0265,-1.349375 -0.52917,-0.03969 -0.80698,-0.03969 -0.0926,0 -0.3175,0.01323 -0.11906,0.01323 -0.15875,0.01323 -0.4101,0 -0.4101,-0.343958 0,-0.621771 0.66146,-0.621771 h 5.55625 q 0.50271,0 0.67469,0.132292 0.11906,0.0926 0.25135,0.304271 z m -1.91823,13.03073 -3.51896,-0.01323 q 0,0.330729 -0.0265,1.018646 -0.0132,0.343958 -0.0132,0.502708 0,0.992187 0.17198,1.336146 0.21167,0.463021 1.33615,0.463021 1.61396,0 1.93146,-0.48948 0.15875,-0.251356 0.15875,-1.005416 0,-0.05292 -0.0397,-1.217084 v -0.06614 -0.343959 z m -2.56646,-12.488334 -0.0132,0.211667 v 0.15875 0.132292 q 0,0.171979 0.0132,0.383645 0.0132,0.463021 0.0132,0.64823 0,0.132291 -0.0132,0.291041 -0.0132,0.132292 -0.0132,0.198438 0,0.383646 0.52917,0.370416 0.39688,-0.01323 0.80698,0.02646 0.2249,0.01323 0.29104,0.01323 0.33073,0 0.33073,-0.515937 l -0.0132,-0.820208 q 0,-0.0926 0.0132,-0.502709 0.0132,-0.198437 0.0265,-0.595312 h -0.50271 -0.44979 -0.67469 z m 6.17802,7.223126 h 4.32594 l -2.11666,-2.778125 z m 0.0265,-7.262813 2.18282,2.844271 2.26218,-2.844271 z"
       style="fill:#ffffff;stroke-width:0.0132292"
       id="path1-7" /></g></svg>
