<svg xmlns="http://www.w3.org/2000/svg" xmlns:xlink="http://www.w3.org/1999/xlink" height="100" width="100" version="1.1"><path d="M557 1410h263q61 0 61 -33q0 -41 -35 -41h-298q-32 0 -32 28q0 14 10 28q13 18 31 18zM1124 305l297 2q-3 31 -3 47q0 73 34 73q16 0 28 -14q16 -17 16 -47v-307q0 -63 -38 -112q-28 -35 -111 -43q-48 -4 -113 -4q-184 0 -184 155v275q0 109 41 109q36 0 36 -67
q0 -14 -1 -28q-2 -36 -2 -39zM1122 221q0 -17 1 -26v-22v-26q0 -97 4 -119q13 -59 85 -59q161 0 189 27q24 22 24 92q0 16 -4 89q-1 12 -1 22q0 11 1 29zM966 1195q9 17 13 23q10 13 40 13h498q53 0 62 -11q9 -10 9 -28q0 -25 -16 -32q-3 -1 -9 -2q-26 -5 -33 -14l-220 -265
l208 -270q58 -1 58 -39q0 -36 -48 -36h-522q-53 0 -53 25q0 29 16 41q3 2 7 3q20 7 27 16l210 263l-208 274q-23 1 -29 5q-5 3 -12 19q-14 -23 -49 -23q-29 0 -76 -3q3 -92 3 -104q0 -92 -23 -122q-24 -31 -92 -38v-329h10l5 -1q31 0 51 12t32 101q6 45 6 93q0 98 32 98
q43 0 43 -63q0 -119 -20 -211q-19 -85 -98 -101q-19 -3 -61 -6v-16v-13v-10q0 -17 2 -96q-2 -31 -3 -56q34 -5 47 -5h12q4 0 36 3v17v13v11q-1 14 -1 33q0 47 34 47q42 0 42 -109v-258q0 -164 -210 -164q-123 0 -167 53q-39 47 -39 105v279q0 80 17 95q12 10 25 10
q38 0 38 -69q0 -6 -4 -62h21h16h13q3 0 13 -1q9 0 38 -1v22q-1 15 -1 18v6l2 94v9v21v26q-70 3 -99 19q-47 25 -65 105q-13 57 -13 189q0 68 40 68q34 0 34 -50q0 -12 -1 -30v-20q0 -128 24 -174q18 -34 63 -34q17 0 17 20v314q-44 8 -62 18q-25 14 -34 44q-10 30 -10 98
q0 10 2 102q-40 3 -61 3q-7 0 -24 -1q-9 -1 -12 -1q-31 0 -31 26q0 47 50 47h420q38 0 51 -10q9 -7 19 -23zM821 210l-266 1q0 -25 -2 -77q-1 -26 -1 -38q0 -75 13 -101q16 -35 101 -35q122 0 146 37q12 19 12 76q0 4 -3 92v5v26v14zM627 1154l-1 -16v-12v-10q0 -13 1 -29
q1 -35 1 -49q0 -10 -1 -22q-1 -10 -1 -15q0 -29 40 -28q30 1 61 -2q17 -1 22 -1q25 0 25 39l-1 62q0 7 1 38q1 15 2 45h-38h-34h-51h-26zM1094 608h327l-160 210zM1096 1157l165 -215l171 215h-336z" style="" transform="scale(0.05 -0.05) translate(0 -1650)"/></svg>